<?xml version="1.0" encoding="utf-8"?>
<svg viewBox="0 0 424 359" xmlns="http://www.w3.org/2000/svg" shape-rendering="geometricPrecision">
  <defs>
    <pattern id="stripes-pattern" width="424" height="359" patternTransform="rotate(31 -300 0)" patternUnits="userSpaceOnUse">
      <rect width="106" height="359" fill="#eb5729"></rect>
      <rect x="107" width="106" height="359" fill="#f1a039"></rect>
      <rect x="212" width="107" height="359" fill="#ef8c34"></rect>
      <rect x="318" width="106" height="359" fill="#ed772f"></rect>
    </pattern>
    <mask id="logo-mask">
      <path id="logo_outer_mask" d="M 224.5 5.79 C 226.947 9.37 229.267 13.03 231.46 16.77 C 263.04 70.55 294.513 124.39 325.88 178.29 C 358.16 233.743 390.52 289.147 422.96 344.5 C 425.16 348.793 424.58 352.617 421.22 355.97 C 419.647 357.543 417.74 358.327 415.5 358.32 C 405.833 358.273 396.167 358.247 386.5 358.24 C 380.473 358.24 374.673 357.333 369.1 355.52 C 363.887 353.82 358.77 351.133 353.75 347.46 C 346.757 342.347 340.923 336.193 336.25 329 C 332.003 322.467 327.39 314.85 322.41 306.15 C 317.183 297.037 314.553 292.447 314.52 292.38 C 288.433 247.44 262.26 202.55 236 157.71 C 234.027 154.21 231.697 150.97 229.01 147.99 C 226.01 144.663 222.84 142.5 219.5 141.5 C 211.047 138.973 203.95 141.133 198.21 147.98 C 195.257 151.5 192.25 155.82 189.19 160.94 C 151.397 224.147 119.72 277.78 94.16 321.84 C 90.033 328.96 85.037 335.403 79.17 341.17 C 69.25 350.91 57.603 356.427 44.23 357.72 C 42.69 357.873 37.367 358.033 28.26 358.2 C 22.927 358.3 17.59 358.33 12.25 358.29 C 8.183 358.657 4.953 357.373 2.56 354.44 C -0.127 351.14 -0.487 347.63 1.48 343.91 C 2.093 342.737 2.42 342.113 2.46 342.04 C 3.167 340.593 3.927 339.17 4.74 337.77 C 65.807 233.43 127.28 129.33 189.16 25.47 C 195.127 15.457 199.177 9.153 201.31 6.56 C 205.257 1.78 210.237 -0.157 216.25 0.75 C 219.437 1.23 222.187 2.91 224.5 5.79 Z" 
        style="fill: #ffffff;"/>
      <path id="logo_inner_mask" d="M 281.96 289.5 C 280.427 290.947 278.94 291.697 277.5 291.75 C 268.68 292.083 254.43 292.14 234.75 291.92 C 230.71 291.873 224.877 292.067 217.25 292.5 C 210.737 292.873 205.09 294.813 200.31 298.32 C 197.697 300.233 195.84 302.697 194.74 305.71 C 194.227 310.197 195.527 313.113 198.64 314.46 C 199.98 315.04 202.717 315.31 206.85 315.27 C 234.73 314.97 262.613 314.88 290.5 315 C 294.313 315.02 297.503 315.927 300.07 317.72 C 301.663 318.833 303.6 321.307 305.88 325.14 C 309.707 331.58 313.46 338.057 317.14 344.57 C 318.233 346.51 318.733 348.243 318.64 349.77 C 318.407 353.497 316.347 356.157 312.46 357.75 L 285.5 358.009 L 190.75 357.86 L 119.423 357.844 C 116.187 357.847 114.893 357.983 112.9 357.323 C 110.853 356.65 109.29 355.787 108.21 353.94 C 106.163 350.413 106.377 346.81 108.85 343.13 C 110.177 341.163 110.847 340.167 110.86 340.14 C 140.593 290.467 170.37 240.817 200.19 191.19 C 201.63 188.79 203.12 186.68 204.66 184.86 C 206.567 182.613 208.577 181.073 210.69 180.24 C 215.25 178.44 219.467 179.58 223.34 183.66 C 224.773 185.173 226.03 186.823 227.11 188.61 C 244.883 218.117 262.667 247.617 280.46 277.11 C 280.487 277.15 280.993 277.937 281.98 279.47 C 283.22 281.39 283.893 283.067 284 284.5 C 284.113 285.953 283.433 287.62 281.96 289.5 Z" 
        style="fill: #ffffff;"/>
    </mask>
  </defs>
  <rect x="0" y="0" width="424" height="359" fill="url(#stripes-pattern)" mask="url(#logo-mask)" />
</svg>
